<?xml version="1.0" standalone="no"?>
<!DOCTYPE svg PUBLIC "-//W3C//DTD SVG 20010904//EN"
 "http://www.w3.org/TR/2001/REC-SVG-20010904/DTD/svg10.dtd">
<svg version="1.0" xmlns="http://www.w3.org/2000/svg"
 width="112.000000pt" height="112.000000pt" viewBox="0 0 112.000000 112.000000"
 preserveAspectRatio="xMidYMid meet">

<g transform="translate(0.000000,112.000000) scale(0.100000,-0.100000)"
fill="#000000" stroke="none">
<path d="M441 1014 c-154 -41 -280 -155 -334 -302 -30 -80 -30 -234 0 -314 55
-149 181 -262 338 -303 232 -60 483 74 568 303 16 44 21 80 21 157 0 77 -5
113 -21 157 -85 230 -340 365 -572 302z m179 -301 c0 -5 -21 -70 -46 -145 -37
-113 -49 -138 -65 -138 -10 0 -19 3 -19 7 0 5 21 70 46 145 37 113 49 138 65
138 10 0 19 -3 19 -7z m-240 -87 c0 -20 -9 -28 -50 -43 l-50 -19 50 -18 c41
-15 50 -22 50 -42 0 -13 -2 -24 -5 -24 -3 0 -39 14 -80 31 -61 26 -75 36 -75
54 0 18 14 28 73 53 39 17 75 31 80 32 4 0 7 -11 7 -24z m453 -11 c55 -22 67
-31 67 -50 0 -23 -7 -27 -148 -82 -10 -4 -13 2 -10 22 2 24 11 31 52 45 l48
16 -48 15 c-42 13 -49 19 -52 43 -3 21 0 27 10 23 7 -2 43 -17 81 -32z"/>
</g>
</svg>
